# xmcd
#
# Track frame offsets: 
#        150
#        20948
#        37433
#        51707
#        65411
#        85845
#        102693
#        119901
#        140573
#        155164
#        171871
#        182454
#        196064
#        207901
#        225544
#        250620
#        269156
#
# Disc length: 3773 seconds
#
# Revision: 0
# Processed by: cddbd v1.5.1PL2 Copyright (c) Steve Scherf et al.
# Submitted via: ExactAudioCopy v0.95a4
#
DISCID=100ebb11
DTITLE=The Tennessee River Authority - Ramblin' Roads: A Bluegrass Col
DTITLE=lection [Avalon]
DYEAR=2006
DGENRE=Country
TTITLE0=Listen To The Music
TTITLE1=Ring Of Fire
TTITLE2=Bad Moon Rising
TTITLE3=I Saw The Light
TTITLE4=City Of New Orleans
TTITLE5=Tennessee Waltz
TTITLE6=Fire And Rain
TTITLE7=I'm So Lonesome I Could Cry
TTITLE8=Mama Tried
TTITLE9=(Ghost) Riders In The Sky
TTITLE10=Fire On The Mountain
TTITLE11=Wabash Cannonball
TTITLE12=The Ballad Of Jed Clampett
TTITLE13=Blue Eyes Crying In The Rain
TTITLE14=I'm Thinking Tonight Of My Blue Eyes
TTITLE15=Don't Think Twice, It's Alright
TTITLE16=My Old Kentucky Home
EXTD=
EXTT0=
EXTT1=
EXTT2=
EXTT3=
EXTT4=
EXTT5=
EXTT6=
EXTT7=
EXTT8=
EXTT9=
EXTT10=
EXTT11=
EXTT12=
EXTT13=
EXTT14=
EXTT15=
EXTT16=
PLAYORDER=
